<svg width="928" height="731" viewBox="0 0 928 731" fill="none" xmlns="http://www.w3.org/2000/svg">
<path d="M856.027 292.035C824.451 322.365 776.603 346.733 749.127 375.686C724.964 401.343 710.274 431.351 695.239 460.893C691.17 468.992 687.4 477.063 683.631 485.135C649.75 558.271 616.682 636.812 542.828 686.51C477.193 730.464 385.122 743.993 306.746 723.373C228.37 702.752 165.672 649.79 138.487 585.81C117.099 535.24 117.658 477.153 143.73 426.909C170.078 376.391 222.63 334.648 285.738 318.328C359.164 299.306 445.619 312.701 506.237 273.198C545.49 247.386 559.916 208.187 589.532 176.295C607.343 156.957 630.225 140.137 657.493 131.378C717.327 112.373 806.298 130.018 852.088 163.875C872.217 178.695 885.165 200.657 887.01 223.401C889.872 250.534 876.234 272.474 856.027 292.035Z" fill="url(#paint0_linear_123_21)"/>
<path opacity="0.56" d="M931.393 740.027C887.275 752.767 850.974 704.025 816.07 686.854C778.653 668.576 745.145 659.714 713.034 659.437C649.369 659.16 604.971 709.01 568.112 754.152C527.065 804.278 482.667 849.697 412.301 851.359C396.943 851.636 375.442 848.866 361.48 833.357C336.908 806.217 346.681 768.276 354.22 736.981C377.117 639.774 397.501 488.009 277.431 444.806C259.002 438.159 240.014 431.236 228.287 416.281C170.765 342.337 246.437 288.056 312.615 264.516C378.793 240.975 453.068 226.574 514.22 188.079C579.281 147.092 607.763 62.07 683.435 35.7604C705.215 28.2829 726.158 30.2215 740.957 41.0223C759.665 54.5926 768.601 78.6866 773.627 95.3032C795.966 168.97 735.093 241.806 761.899 314.919C779.212 362.277 824.168 394.679 865.774 420.435C934.744 462.807 988.357 509.057 989.753 596.294C990.311 639.497 979.421 682.146 958.479 716.764C951.777 727.842 944.517 735.042 935.861 738.366C934.465 738.92 932.789 739.474 931.393 740.027Z" fill="#7FACD6"/>
<path d="M370.695 293.872C369.578 246.791 371.533 197.218 389.404 152.631C405.878 111.92 446.926 64.0087 494.954 61.5162C525.948 59.8545 541.306 97.7958 559.735 116.074C677.292 233.775 858.793 157.339 993.662 230.452C1017.4 243.191 1038.62 263.685 1045.6 290.271C1052.86 317.966 1043.37 347.322 1030.24 372.801C999.247 432.62 950.94 477.208 901.795 522.073C858.514 561.399 783.68 602.387 778.653 667.469C776.699 693.778 797.083 716.211 802.667 740.859C816.908 805.386 746.542 847.205 690.974 852.19C626.472 858.006 558.06 832.25 514.221 783.508C456.978 719.811 439.945 579.954 336.908 569.154C326.856 568.046 315.686 568.6 307.589 562.784C295.861 554.476 295.023 536.474 301.446 523.735C310.939 504.349 327.693 490.502 339.7 472.777C374.046 420.989 372.091 357.015 370.695 293.872Z" fill="url(#paint1_linear_123_21)"/>
<path d="M214.999 226.655C189.847 198.78 143.906 204.096 112.029 215.143C63.9429 231.643 -3.00243 270.953 22.5684 331.617C25.767 339.058 30.1889 346.249 35.5106 352.245C49.6057 368.592 70.4487 378.126 91.6722 380.882C109.784 383.387 130.128 381.896 146.661 373.09C156.089 368.135 163.394 360.324 166.205 349.889C167.574 344.805 168.008 338.9 167.758 333.388C167.292 328.678 163.752 321.434 167.477 317.261C173.685 310.306 186.095 313.593 194.334 310.903C205.433 307.25 215.995 299.155 222.187 289.043C234.498 269.085 230.911 243.77 214.999 226.655Z" fill="url(#paint2_linear_123_21)"/>
<path d="M965.46 78.9636C964.064 77.3019 962.667 75.9172 961.271 74.5325C958.758 72.3169 956.245 70.1014 954.849 67.055C952.336 61.2392 955.407 54.8695 954.29 48.7768C953.173 42.1301 949.264 35.4835 944.517 30.4985C921.341 7.51216 882.807 18.036 857.676 31.8832C837.851 42.684 826.96 60.4084 831.149 82.8408C834.779 101.673 847.344 120.505 864.378 129.921C865.215 130.475 866.053 130.752 866.891 131.306C871.638 133.798 876.664 136.014 880.573 139.891C885.041 144.599 888.392 150.969 893.418 155.4C897.606 159.277 903.47 162.047 908.775 163.431C922.179 166.755 936.14 162.324 947.868 156.508C963.226 149.03 974.954 134.629 977.467 117.736C979.421 103.888 974.395 89.4874 965.46 78.9636Z" fill="url(#paint3_linear_123_21)"/>
<defs>
<linearGradient id="paint0_linear_123_21" x1="-61.5514" y1="913.543" x2="668.42" y2="-49.9506" gradientUnits="userSpaceOnUse">
<stop stop-color="#7FACD6"/>
<stop offset="1" stop-color="#E9B7D4"/>
</linearGradient>
<linearGradient id="paint1_linear_123_21" x1="355.669" y1="368.245" x2="1090.71" y2="649.892" gradientUnits="userSpaceOnUse">
<stop offset="2.54313e-07" stop-color="#E9B7D4"/>
<stop offset="1" stop-color="#7FACD6"/>
</linearGradient>
<linearGradient id="paint2_linear_123_21" x1="68.2831" y1="229.796" x2="177.723" y2="346.054" gradientUnits="userSpaceOnUse">
<stop offset="2.54313e-07" stop-color="#E9B7D4"/>
<stop offset="1" stop-color="#7FACD6"/>
</linearGradient>
<linearGradient id="paint3_linear_123_21" x1="867.418" y1="134.472" x2="952.349" y2="37.2882" gradientUnits="userSpaceOnUse">
<stop stop-color="#7FACD6"/>
<stop offset="1" stop-color="#E9B7D4"/>
</linearGradient>
</defs>
</svg>
